{
  "accessors": [
    {
      "bufferView": 2,
      "componentType": 5126,
      "count": 65532,
      "max": [
        507.08090209960938,
        428.27557373046875,
        467.63116455078125
      ],
      "min": [
        -337.55642700195312,
        -481.56741333007812,
        -359.68173217773438
      ],
      "type": "VEC3"
    },
    {
      "bufferView": 2,
      "byteOffset": 786384,
      "componentType": 5126,
      "count": 65532,
      "max": [
        0.99999493360519409,
        0.99922138452529907,
        0.99997854232788086
      ],
      "min": [
        -0.99998939037322998,
        -0.99792754650115967,
        -0.9999653697013855
      ],
      "type": "VEC3"
    },
    {
      "bufferView": 1,
      "componentType": 5126,
      "count": 65532,
      "max": [
        0.99989175796508789,
        0.9999198317527771
      ],
      "min": [
        0.00014882087998557836,
        0.00017511844635009766
      ],
      "type": "VEC2"
    },
    {
      "bufferView": 0,
      "componentType": 5125,
      "count": 297840,
      "max": [
        65531
      ],
      "min": [
        0
      ],
      "type": "SCALAR"
    },
    {
      "bufferView": 2,
      "byteOffset": 1572768,
      "componentType": 5126,
      "count": 65532,
      "max": [
        515.43182373046875,
        473.84136962890625,
        458.867919921875
      ],
      "min": [
        -341.30645751953125,
        -518.258544921875,
        -429.429443359375
      ],
      "type": "VEC3"
    },
    {
      "bufferView": 2,
      "byteOffset": 2359152,
      "componentType": 5126,
      "count": 65532,
      "max": [
        0.99995917081832886,
        0.99998623132705688,
        0.99998277425765991
      ],
      "min": [
        -0.99998939037322998,
        -0.99920713901519775,
        -0.99999231100082397
      ],
      "type": "VEC3"
    },
    {
      "bufferView": 1,
      "byteOffset": 524256,
      "componentType": 5126,
      "count": 65532,
      "max": [
        0.99973070621490479,
        0.99991554021835327
      ],
      "min": [
        0.0020600175485014915,
        0.0019424557685852051
      ],
      "type": "VEC2"
    },
    {
      "bufferView": 0,
      "byteOffset": 1191360,
      "componentType": 5125,
      "count": 287244,
      "max": [
        65531
      ],
      "min": [
        0
      ],
      "type": "SCALAR"
    },
    {
      "bufferView": 2,
      "byteOffset": 3145536,
      "componentType": 5126,
      "count": 65532,
      "max": [
        520.0189208984375,
        473.53591918945312,
        466.78610229492188
      ],
      "min": [
        -341.095947265625,
        -517.31329345703125,
        -398.82965087890625
      ],
      "type": "VEC3"
    },
    {
      "bufferView": 2,
      "byteOffset": 3931920,
      "componentType": 5126,
      "count": 65532,
      "max": [
        0.99994784593582153,
        0.99996495246887207,
        0.99990564584732056
      ],
      "min": [
        -0.99999171495437622,
        -0.99905824661254883,
        -0.99997693300247192
      ],
      "type": "VEC3"
    },
    {
      "bufferView": 1,
      "byteOffset": 1048512,
      "componentType": 5126,
      "count": 65532,
      "max": [
        0.99990057945251465,
        0.99988365173339844
      ],
      "min": [
        0.00012951850658282638,
        0.00050431489944458008
      ],
      "type": "VEC2"
    },
    {
      "bufferView": 0,
      "byteOffset": 2340336,
      "componentType": 5125,
      "count": 250080,
      "max": [
        65531
      ],
      "min": [
        0
      ],
      "type": "SCALAR"
    },
    {
      "bufferView": 2,
      "byteOffset": 4718304,
      "componentType": 5126,
      "count": 65532,
      "max": [
        490.10546875,
        473.99093627929688,
        465.3970947265625
      ],
      "min": [
        -324.87271118164062,
        -517.31329345703125,
        -400.32989501953125
      ],
      "type": "VEC3"
    },
    {
      "bufferView": 2,
      "byteOffset": 5504688,
      "componentType": 5126,
      "count": 65532,
      "max": [
        0.99997860193252563,
        0.99996942281723022,
        0.99996829032897949
      ],
      "min": [
        -0.99998325109481812,
        -0.99972540140151978,
        -0.99995869398117065
      ],
      "type": "VEC3"
    },
    {
      "bufferView": 1,
      "byteOffset": 1572768,
      "componentType": 5126,
      "count": 65532,
      "max": [
        0.99990659952163696,
        0.99991226196289062
      ],
      "min": [
        8.2674028817564249e-05,
        0.00020891427993774414
      ],
      "type": "VEC2"
    },
    {
      "bufferView": 0,
      "byteOffset": 3340656,
      "componentType": 5125,
      "count": 247407,
      "max": [
        65531
      ],
      "min": [
        0
      ],
      "type": "SCALAR"
    },
    {
      "bufferView": 2,
      "byteOffset": 6291072,
      "componentType": 5126,
      "count": 65532,
      "max": [
        472.91976928710938,
        473.30267333984375,
        434.754150390625
      ],
      "min": [
        -330.80532836914062,
        -480.807373046875,
        -347.33465576171875
      ],
      "type": "VEC3"
    },
    {
      "bufferView": 2,
      "byteOffset": 7077456,
      "componentType": 5126,
      "count": 65532,
      "max": [
        0.9999849796295166,
        0.99996942281723022,
        0.99997854232788086
      ],
      "min": [
        -0.99997478723526001,
        -0.99907928705215454,
        -0.99995189905166626
      ],
      "type": "VEC3"
    },
    {
      "bufferView": 1,
      "byteOffset": 2097024,
      "componentType": 5126,
      "count": 65532,
      "max": [
        0.99992150068283081,
        0.99992126226425171
      ],
      "min": [
        9.2687609139829874e-05,
        0.0002422332763671875
      ],
      "type": "VEC2"
    },
    {
      "bufferView": 0,
      "byteOffset": 4330284,
      "componentType": 5125,
      "count": 224196,
      "max": [
        65531
      ],
      "min": [
        0
      ],
      "type": "SCALAR"
    },
    {
      "bufferView": 2,
      "byteOffset": 7863840,
      "componentType": 5126,
      "count": 65533,
      "max": [
        507.08090209960938,
        473.84136962890625,
        466.91802978515625
      ],
      "min": [
        -335.83560180664062,
        -517.44512939453125,
        -400.32989501953125
      ],
      "type": "VEC3"
    },
    {
      "bufferView": 2,
      "byteOffset": 8650236,
      "componentType": 5126,
      "count": 65533,
      "max": [
        0.99994784593582153,
        0.99998623132705688,
        0.99998277425765991
      ],
      "min": [
        -0.99999630451202393,
        -0.99972540140151978,
        -0.99992388486862183
      ],
      "type": "VEC3"
    },
    {
      "bufferView": 1,
      "byteOffset": 2621280,
      "componentType": 5126,
      "count": 65533,
      "max": [
        0.99991881847381592,
        0.9999198317527771
      ],
      "min": [
        0.00010740280413301662,
        0.00024682283401489258
      ],
      "type": "VEC2"
    },
    {
      "bufferView": 0,
      "byteOffset": 5227068,
      "componentType": 5125,
      "count": 120456,
      "max": [
        65532
      ],
      "min": [
        0
      ],
      "type": "SCALAR"
    },
    {
      "bufferView": 2,
      "byteOffset": 9436632,
      "componentType": 5126,
      "count": 13269,
      "max": [
        503.65902709960938,
        473.99093627929688,
        464.9884033203125
      ],
      "min": [
        -328.31570434570312,
        -481.20947265625,
        -364.99603271484375
      ],
      "type": "VEC3"
    },
    {
      "bufferView": 2,
      "byteOffset": 9595860,
      "componentType": 5126,
      "count": 13269,
      "max": [
        0.99999493360519409,
        0.99998623132705688,
        0.99950098991394043
      ],
      "min": [
        -0.99998432397842407,
        -0.99972540140151978,
        -0.99975705146789551
      ],
      "type": "VEC3"
    },
    {
      "bufferView": 1,
      "byteOffset": 3145544,
      "componentType": 5126,
      "count": 13269,
      "max": [
        0.99988335371017456,
        0.9999193549156189
      ],
      "min": [
        0.0014340495690703392,
        0.00029778480529785156
      ],
      "type": "VEC2"
    },
    {
      "bufferView": 0,
      "byteOffset": 5708892,
      "componentType": 5125,
      "count": 15084,
      "max": [
        13268
      ],
      "min": [
        0
      ],
      "type": "SCALAR"
    }
  ],
  "asset": {
    "extras": {
      "author": "Nexilion (https://sketchfab.com/nexilion)",
      "license": "CC-BY-4.0 (http://creativecommons.org/licenses/by/4.0/)",
      "source": "https://sketchfab.com/3d-models/black-dress-of-empress-sisi-8d95a9b2b311442bac3e9af080408c46",
      "title": "Black Dress of Empress Sisi"
    },
    "generator": "Sketchfab-9.42.0",
    "version": "2.0"
  },
  "bufferViews": [
    {
      "buffer": 0,
      "byteLength": 5769228,
      "byteOffset": 0,
      "name": "floatBufferViews",
      "target": 34963
    },
    {
      "buffer": 0,
      "byteLength": 3251696,
      "byteOffset": 5769228,
      "byteStride": 8,
      "name": "floatBufferViews",
      "target": 34962
    },
    {
      "buffer": 0,
      "byteLength": 9755088,
      "byteOffset": 9020924,
      "byteStride": 12,
      "name": "floatBufferViews",
      "target": 34962
    }
  ],
  "buffers": [
    {
      "byteLength": 18776012,
      "uri": "scene.bin"
    }
  ],
  "images": [
    {
      "uri": "textures/Material0_baseColor.jpeg"
    }
  ],
  "materials": [
    {
      "doubleSided": true,
      "emissiveFactor": [
        0,
        0,
        0
      ],
      "name": "Material0",
      "pbrMetallicRoughness": {
        "baseColorFactor": [
          1,
          1,
          1,
          1
        ],
        "baseColorTexture": {
          "index": 0,
          "texCoord": 0
        },
        "metallicFactor": 0,
        "roughnessFactor": 1
      }
    }
  ],
  "meshes": [
    {
      "primitives": [
        {
          "attributes": {
            "NORMAL": 1,
            "POSITION": 0,
            "TEXCOORD_0": 2
          },
          "indices": 3,
          "material": 0,
          "mode": 4
        }
      ]
    },
    {
      "primitives": [
        {
          "attributes": {
            "NORMAL": 5,
            "POSITION": 4,
            "TEXCOORD_0": 6
          },
          "indices": 7,
          "material": 0,
          "mode": 4
        }
      ]
    },
    {
      "primitives": [
        {
          "attributes": {
            "NORMAL": 9,
            "POSITION": 8,
            "TEXCOORD_0": 10
          },
          "indices": 11,
          "material": 0,
          "mode": 4
        }
      ]
    },
    {
      "primitives": [
        {
          "attributes": {
            "NORMAL": 13,
            "POSITION": 12,
            "TEXCOORD_0": 14
          },
          "indices": 15,
          "material": 0,
          "mode": 4
        }
      ]
    },
    {
      "primitives": [
        {
          "attributes": {
            "NORMAL": 17,
            "POSITION": 16,
            "TEXCOORD_0": 18
          },
          "indices": 19,
          "material": 0,
          "mode": 4
        }
      ]
    },
    {
      "primitives": [
        {
          "attributes": {
            "NORMAL": 21,
            "POSITION": 20,
            "TEXCOORD_0": 22
          },
          "indices": 23,
          "material": 0,
          "mode": 4
        }
      ]
    },
    {
      "primitives": [
        {
          "attributes": {
            "NORMAL": 25,
            "POSITION": 24,
            "TEXCOORD_0": 26
          },
          "indices": 27,
          "material": 0,
          "mode": 4
        }
      ]
    }
  ],
  "nodes": [
    {
      "children": [
        1
      ],
      "name": "RootNode (gltf orientation matrix)",
      "rotation": [
        -0.70710678118654746,
        -0,
        -0,
        0.70710678118654757
      ]
    },
    {
      "children": [
        2
      ],
      "name": "RootNode (model correction matrix)"
    },
    {
      "children": [
        3
      ],
      "name": "root"
    },
    {
      "children": [
        4
      ],
      "matrix": [
        1,
        0,
        0,
        0,
        0,
        2.2204460492503131e-16,
        1,
        0,
        0,
        -1,
        2.2204460492503131e-16,
        0,
        0,
        0,
        0,
        1
      ],
      "name": "GLTF_SceneRootNode"
    },
    {
      "children": [
        5
      ],
      "matrix": [
        1,
        0,
        -0,
        0,
        -0,
        0,
        -1,
        0,
        0,
        1,
        0,
        0,
        0,
        0,
        0,
        1
      ],
      "name": "RootNode (gltf orientation matrix)_0"
    },
    {
      "children": [
        6
      ],
      "matrix": [
        -0.98154342174530029,
        0.16138733923435211,
        -0.10259921848773956,
        0,
        0.074505358934402466,
        -0.17139668762683868,
        -0.98238086700439453,
        0,
        -0.17612899839878082,
        -0.97189366817474365,
        0.1562090665102005,
        0,
        172.05033874511719,
        -7.0575194358825684,
        14.794605255126953,
        1
      ],
      "name": "RootNode (model correction matrix)_1"
    },
    {
      "children": [
        7
      ],
      "matrix": [
        1,
        0,
        0,
        0,
        0,
        -1,
        0,
        0,
        0,
        0,
        -1,
        0,
        0,
        0,
        0,
        1
      ],
      "name": "sketchfabTemp.obj.fbx_2"
    },
    {
      "children": [
        8
      ],
      "name": "RootNode_3"
    },
    {
      "children": [
        9,
        11,
        13,
        15,
        17,
        19,
        21
      ],
      "name": "Stereo textured mesh_4"
    },
    {
      "children": [
        10
      ],
      "name": "Stereo textured mesh_Material0_0_5"
    },
    {
      "mesh": 0,
      "name": ""
    },
    {
      "children": [
        12
      ],
      "name": "Stereo textured mesh_Material0_0_6"
    },
    {
      "mesh": 1,
      "name": ""
    },
    {
      "children": [
        14
      ],
      "name": "Stereo textured mesh_Material0_0_7"
    },
    {
      "mesh": 2,
      "name": ""
    },
    {
      "children": [
        16
      ],
      "name": "Stereo textured mesh_Material0_0_8"
    },
    {
      "mesh": 3,
      "name": ""
    },
    {
      "children": [
        18
      ],
      "name": "Stereo textured mesh_Material0_0_9"
    },
    {
      "mesh": 4,
      "name": ""
    },
    {
      "children": [
        20
      ],
      "name": "Stereo textured mesh_Material0_0_10"
    },
    {
      "mesh": 5,
      "name": ""
    },
    {
      "children": [
        22
      ],
      "name": "Stereo textured mesh_Material0_0_11"
    },
    {
      "mesh": 6,
      "name": ""
    }
  ],
  "samplers": [
    {
      "magFilter": 9729,
      "minFilter": 9987,
      "wrapS": 10497,
      "wrapT": 10497
    }
  ],
  "scene": 0,
  "scenes": [
    {
      "name": "OSG_Scene",
      "nodes": [
        0
      ]
    }
  ],
  "textures": [
    {
      "sampler": 0,
      "source": 0
    }
  ]
}

