{
  "accessors": [
    {
      "bufferView": 2,
      "componentType": 5126,
      "count": 682,
      "max": [
        0.51489502191543579,
        0.11292999982833862,
        0.57488399744033813
      ],
      "min": [
        -0.5416259765625,
        -1,
        -0.57488399744033813
      ],
      "type": "VEC3"
    },
    {
      "bufferView": 2,
      "byteOffset": 8184,
      "componentType": 5126,
      "count": 682,
      "max": [
        0.99393033981323242,
        0.75560098886489868,
        0.99772477149963379
      ],
      "min": [
        -0.99393045902252197,
        -0.63627982139587402,
        -0.9995771050453186
      ],
      "type": "VEC3"
    },
    {
      "bufferView": 3,
      "componentType": 5126,
      "count": 682,
      "max": [
        0.48322188854217529,
        0.9997667670249939,
        0.98246681690216064,
        1
      ],
      "min": [
        -0.99935591220855713,
        -0.97164708375930786,
        -0.98656278848648071,
        -1
      ],
      "type": "VEC4"
    },
    {
      "bufferView": 1,
      "componentType": 5126,
      "count": 682,
      "max": [
        0.99640297889709473,
        0.99288898706436157
      ],
      "min": [
        0.44872799515724182,
        0.36302199959754944
      ],
      "type": "VEC2"
    },
    {
      "bufferView": 0,
      "componentType": 5125,
      "count": 3684,
      "max": [
        681
      ],
      "min": [
        0
      ],
      "type": "SCALAR"
    },
    {
      "bufferView": 2,
      "byteOffset": 16368,
      "componentType": 5126,
      "count": 2119,
      "max": [
        0.97774100303649902,
        1,
        0.30527999997138977
      ],
      "min": [
        -0.97774100303649902,
        0.19464600086212158,
        -0.27039000391960144
      ],
      "type": "VEC3"
    },
    {
      "bufferView": 2,
      "byteOffset": 41796,
      "componentType": 5126,
      "count": 2119,
      "max": [
        0.99822938442230225,
        0.9717596173286438,
        0.99983078241348267
      ],
      "min": [
        -0.99650150537490845,
        -0.99247825145721436,
        -0.99997937679290771
      ],
      "type": "VEC3"
    },
    {
      "bufferView": 3,
      "byteOffset": 10912,
      "componentType": 5126,
      "count": 2119,
      "max": [
        0.99996250867843628,
        0.95470845699310303,
        0.99798506498336792,
        1
      ],
      "min": [
        -0.9999995231628418,
        -0.97769486904144287,
        -0.99987894296646118,
        -1
      ],
      "type": "VEC4"
    },
    {
      "bufferView": 1,
      "byteOffset": 5456,
      "componentType": 5126,
      "count": 2119,
      "max": [
        0.99045300483703613,
        0.95434898138046265
      ],
      "min": [
        0.0059758899733424187,
        0.0040815901011228561
      ],
      "type": "VEC2"
    },
    {
      "bufferView": 0,
      "byteOffset": 14736,
      "componentType": 5125,
      "count": 10890,
      "max": [
        2118
      ],
      "min": [
        0
      ],
      "type": "SCALAR"
    },
    {
      "bufferView": 2,
      "byteOffset": 67224,
      "componentType": 5126,
      "count": 294,
      "max": [
        0.26662901043891907,
        0.24847100675106049,
        0.26843199133872986
      ],
      "min": [
        -0.30231299996376038,
        0.07107110321521759,
        -0.20911900699138641
      ],
      "type": "VEC3"
    },
    {
      "bufferView": 2,
      "byteOffset": 70752,
      "componentType": 5126,
      "count": 294,
      "max": [
        0.9989815354347229,
        0.99881422519683838,
        0.99963337182998657
      ],
      "min": [
        -0.99702745676040649,
        -0.99988365173339844,
        -0.9999043345451355
      ],
      "type": "VEC3"
    },
    {
      "bufferView": 3,
      "byteOffset": 44816,
      "componentType": 5126,
      "count": 294,
      "max": [
        0.99950754642486572,
        0.091331489384174347,
        0.99997812509536743,
        1
      ],
      "min": [
        -0.99997824430465698,
        -0.066522516310214996,
        -0.99973183870315552,
        -1
      ],
      "type": "VEC4"
    },
    {
      "bufferView": 1,
      "byteOffset": 22408,
      "componentType": 5126,
      "count": 294,
      "max": [
        0.4182249903678894,
        0.99277102947235107
      ],
      "min": [
        0.0094421803951263428,
        0.86098301410675049
      ],
      "type": "VEC2"
    },
    {
      "bufferView": 0,
      "byteOffset": 58296,
      "componentType": 5125,
      "count": 1080,
      "max": [
        293
      ],
      "min": [
        0
      ],
      "type": "SCALAR"
    }
  ],
  "asset": {
    "extras": {
      "author": "pasprunger (https://sketchfab.com/pasprunger)",
      "license": "CC-BY-4.0 (http://creativecommons.org/licenses/by/4.0/)",
      "source": "https://sketchfab.com/3d-models/chinese-clothing-b3ba067109b54b60bd6a29d083654792",
      "title": "Chinese_Clothing"
    },
    "generator": "Sketchfab-7.13.0",
    "version": "2.0"
  },
  "bufferViews": [
    {
      "buffer": 0,
      "byteLength": 62616,
      "byteOffset": 0,
      "name": "floatBufferViews",
      "target": 34963
    },
    {
      "buffer": 0,
      "byteLength": 24760,
      "byteOffset": 62616,
      "byteStride": 8,
      "name": "floatBufferViews",
      "target": 34962
    },
    {
      "buffer": 0,
      "byteLength": 74280,
      "byteOffset": 87376,
      "byteStride": 12,
      "name": "floatBufferViews",
      "target": 34962
    },
    {
      "buffer": 0,
      "byteLength": 49520,
      "byteOffset": 161656,
      "byteStride": 16,
      "name": "floatBufferViews",
      "target": 34962
    }
  ],
  "buffers": [
    {
      "byteLength": 211176,
      "uri": "scene.bin"
    }
  ],
  "images": [
    {
      "uri": "textures/chinese_mat_baseColor.jpeg"
    },
    {
      "uri": "textures/chinese_mat_metallicRoughness.png"
    },
    {
      "uri": "textures/chinese_mat_normal.png"
    }
  ],
  "materials": [
    {
      "doubleSided": true,
      "name": "chinese_mat",
      "normalTexture": {
        "index": 2,
        "scale": 1,
        "texCoord": 0
      },
      "occlusionTexture": {
        "index": 1,
        "strength": 1,
        "texCoord": 0
      },
      "pbrMetallicRoughness": {
        "baseColorFactor": [
          1,
          1,
          1,
          1
        ],
        "baseColorTexture": {
          "index": 0,
          "texCoord": 0
        },
        "metallicFactor": 1,
        "metallicRoughnessTexture": {
          "index": 1,
          "texCoord": 0
        },
        "roughnessFactor": 1
      }
    }
  ],
  "meshes": [
    {
      "name": "defaultMaterial",
      "primitives": [
        {
          "attributes": {
            "NORMAL": 1,
            "POSITION": 0,
            "TANGENT": 2,
            "TEXCOORD_0": 3
          },
          "indices": 4,
          "material": 0,
          "mode": 4
        }
      ]
    },
    {
      "name": "defaultMaterial",
      "primitives": [
        {
          "attributes": {
            "NORMAL": 6,
            "POSITION": 5,
            "TANGENT": 7,
            "TEXCOORD_0": 8
          },
          "indices": 9,
          "material": 0,
          "mode": 4
        }
      ]
    },
    {
      "name": "defaultMaterial",
      "primitives": [
        {
          "attributes": {
            "NORMAL": 11,
            "POSITION": 10,
            "TANGENT": 12,
            "TEXCOORD_0": 13
          },
          "indices": 14,
          "material": 0,
          "mode": 4
        }
      ]
    }
  ],
  "nodes": [
    {
      "children": [
        1
      ],
      "name": "RootNode (gltf orientation matrix)",
      "rotation": [
        -0.70710678118654746,
        -0,
        -0,
        0.70710678118654757
      ]
    },
    {
      "children": [
        2
      ],
      "name": "RootNode (model correction matrix)"
    },
    {
      "children": [
        3,
        5,
        7
      ],
      "matrix": [
        1,
        0,
        0,
        0,
        0,
        -4.3711390063094768e-08,
        0.999999999999999,
        0,
        0,
        -0.999999999999999,
        -4.3711390063094768e-08,
        0,
        0,
        0,
        0,
        1
      ],
      "name": "Collada visual scene group"
    },
    {
      "children": [
        4
      ],
      "name": "skirt_low"
    },
    {
      "mesh": 0,
      "name": "defaultMaterial"
    },
    {
      "children": [
        6
      ],
      "name": "shirt_low"
    },
    {
      "mesh": 1,
      "name": "defaultMaterial"
    },
    {
      "children": [
        8
      ],
      "name": "polySurface2"
    },
    {
      "mesh": 2,
      "name": "defaultMaterial"
    }
  ],
  "samplers": [
    {
      "magFilter": 9729,
      "minFilter": 9987,
      "wrapS": 10497,
      "wrapT": 10497
    }
  ],
  "scene": 0,
  "scenes": [
    {
      "name": "OSG_Scene",
      "nodes": [
        0
      ]
    }
  ],
  "textures": [
    {
      "sampler": 0,
      "source": 0
    },
    {
      "sampler": 0,
      "source": 1
    },
    {
      "sampler": 0,
      "source": 2
    }
  ]
}

